<svg xmlns="http://www.w3.org/2000/svg" width="50" height="50" viewBox="0 0 50 50" fill="none">
    <path d="M38.4259 16.7949V17.0171C38.4259 23.5212 38.4259 30.0251 38.4259 36.5287C38.4259 37.5656 38.1379 38.4662 37.3941 39.1846C36.8159 39.761 36.0443 40.0864 35.2391 40.0933C34.5673 40.1052 33.8948 40.0933 33.223 40.0933H33.0027V40.3281C33.0027 42.5374 33.0186 44.7467 32.9962 46.9559C32.984 48.2046 32.3965 49.1371 31.3107 49.6814C29.5106 50.5842 27.4261 49.4822 27.0481 47.4596C27.0156 47.2716 27.0006 47.0809 27.0035 46.89C27.0001 44.7116 27.0001 42.5334 27.0035 40.3555V40.1193H22.9958V46.8389C22.9958 47.618 22.769 48.315 22.2758 48.9082C21.6832 49.6081 20.9344 49.9858 20.0279 49.9843C18.7585 49.9843 17.8441 49.3711 17.2731 48.2135C17.0864 47.8339 16.9907 47.4139 16.9937 46.9885C16.9937 44.7731 16.9937 42.5579 16.9937 40.3429V40.1H16.79C16.1304 40.1 15.4701 40.1 14.8106 40.1C14.0502 40.0979 13.3147 39.8203 12.7335 39.3159C12.1523 38.8115 11.7624 38.1126 11.6324 37.3419C11.5896 37.0766 11.5686 36.808 11.5698 36.5391C11.5659 30.029 11.5659 23.519 11.5698 17.0089V16.7956L38.4259 16.7949Z" fill="#2E2C2C"/>
    <path d="M11.5488 15.65C11.7598 10.5835 14.2029 7.00477 18.4064 4.54665C18.2854 4.31483 18.1594 4.06747 18.0276 3.8238C17.6791 3.17502 17.3292 2.52969 16.9778 1.88782C16.7618 1.49307 16.5516 1.09684 16.3341 0.702826C16.2024 0.464346 16.2477 0.204389 16.4529 0.071818C16.6581 -0.0607532 16.9101 -0.00224421 17.0477 0.240679C17.3436 0.770224 17.628 1.30717 17.916 1.84116C18.3336 2.61585 18.7512 3.39054 19.1818 4.19041C21.0119 3.36084 22.9904 2.934 24.9902 2.93728C26.9954 2.9307 28.9796 3.35711 30.8145 4.18893C31.0046 3.84084 31.1954 3.49645 31.3819 3.15206C31.9032 2.18432 32.4238 1.21608 32.9436 0.247345C33.0675 0.0177523 33.3 -0.060753 33.5074 0.0488589C33.5585 0.0749752 33.6039 0.111594 33.6407 0.156456C33.6776 0.201317 33.705 0.253467 33.7215 0.309686C33.738 0.365905 33.7431 0.424999 33.7365 0.483318C33.7298 0.541638 33.7117 0.597944 33.6831 0.648761C33.2712 1.42715 32.8522 2.20407 32.4353 2.97801C32.1646 3.48016 31.8936 3.9818 31.6224 4.48296C31.6125 4.50657 31.606 4.53151 31.6029 4.55702C35.7949 7.01366 38.2423 10.5872 38.4482 15.6552L11.5488 15.65ZM18.811 8.32234C18.6637 8.3176 18.517 8.34369 18.3797 8.39901C18.2425 8.45433 18.1176 8.53773 18.0127 8.64417C17.9077 8.75061 17.8249 8.87786 17.7691 9.01821C17.7134 9.15856 17.686 9.30909 17.6885 9.46067C17.6826 9.61434 17.7075 9.76761 17.7618 9.91091C17.816 10.0542 17.8985 10.1845 18.0039 10.2935C18.1093 10.4026 18.2354 10.4881 18.3744 10.5447C18.5134 10.6014 18.6623 10.6279 18.8117 10.6227C19.4828 10.6227 19.9414 10.1161 19.9357 9.45993C19.9381 9.30822 19.9105 9.15758 19.8546 9.01716C19.7987 8.87674 19.7157 8.74948 19.6105 8.64309C19.5053 8.5367 19.3802 8.45341 19.2428 8.39827C19.1053 8.34313 18.9584 8.3173 18.811 8.32234ZM31.1954 8.32234C31.0468 8.31769 30.8988 8.34417 30.7605 8.40017C30.6221 8.45617 30.4963 8.54053 30.3906 8.64811C30.285 8.75569 30.2017 8.88425 30.1458 9.02597C30.09 9.1677 30.0627 9.31962 30.0657 9.47252C30.0715 10.1295 30.5323 10.616 31.1817 10.6234C31.3288 10.6265 31.4749 10.5993 31.6115 10.5433C31.7481 10.4874 31.8725 10.4039 31.9772 10.2977C32.082 10.1916 32.165 10.0649 32.2214 9.92521C32.2778 9.78552 32.3065 9.63563 32.3057 9.48437C32.2992 8.82448 31.8312 8.3253 31.194 8.32308L31.1954 8.32234Z" fill="#2E2C2C"/>
    <path d="M4.46879 25.7556C4.46879 23.6204 4.48103 21.4852 4.46447 19.35C4.45822 18.6184 4.70405 17.9082 5.15838 17.3453C5.6127 16.7824 6.24615 16.4032 6.94639 16.2749C7.61781 16.1544 8.30912 16.2728 8.90635 16.6106C9.50359 16.9484 9.97111 17.4854 10.2319 18.1331C10.3894 18.5256 10.4704 18.9461 10.4702 19.3707C10.4702 23.6345 10.4759 27.899 10.4702 32.1627C10.4702 33.3655 9.95033 34.2987 8.9315 34.8949C8.56485 35.1077 8.15861 35.2383 7.73943 35.2783C7.32024 35.3182 6.89758 35.2666 6.49917 35.1267C6.10075 34.9868 5.73558 34.7619 5.42761 34.4667C5.11964 34.1714 4.87583 33.8126 4.71216 33.4136C4.55117 33.0162 4.46915 32.5896 4.47095 32.159C4.47143 30.025 4.47071 27.8906 4.46879 25.7556Z" fill="#2E2C2C"/>
    <path d="M45.531 25.7642C45.531 27.9179 45.5446 30.0717 45.5259 32.2246C45.5151 33.4556 44.9499 34.3813 43.8929 34.9501C43.1915 35.3235 42.3747 35.3957 41.6216 35.1508C40.8685 34.9059 40.2405 34.364 39.8752 33.6437C39.6467 33.2029 39.5277 32.7108 39.5289 32.2113C39.5289 27.9103 39.5289 23.6095 39.5289 19.3089C39.5316 18.5576 39.8006 17.833 40.2854 17.271C40.7703 16.709 41.4377 16.3482 42.1627 16.2561C43.7115 16.0458 45.1868 17.1448 45.4849 18.7505C45.5171 18.9385 45.532 19.1292 45.5295 19.32C45.5324 21.4688 45.5329 23.6169 45.531 25.7642Z" fill="#2E2C2C"/>
 </svg>