<svg xmlns="http://www.w3.org/2000/svg" width="50" height="50" viewBox="0 0 50 50" fill="none">
    <path d="M47.3605 20.6612C47.7327 21.8974 47.9754 23.1688 48.0849 24.455C48.1582 25.2471 48.1634 26.0456 48.1995 26.8417H1.79502C1.76528 25.2256 1.93503 23.612 2.30044 22.0373C2.33619 21.9601 2.36682 21.8806 2.39213 21.7994C2.88008 19.7584 3.64327 17.7929 4.6608 15.9568C5.57597 14.2947 6.69474 12.7527 7.99133 11.3663C9.0612 10.2223 10.2199 9.17565 11.5133 8.28511C11.6966 8.15871 11.7958 8.00714 11.7534 7.78064C10.5251 5.80548 9.29901 3.82879 8.07499 1.85057C7.98445 1.70358 7.96784 1.51197 7.91741 1.34096C8.03202 0.763281 8.35235 0.414386 8.89846 0.324016C9.43368 0.236507 9.85888 0.441268 10.1454 0.895975C10.7219 1.80539 11.2863 2.72281 11.8542 3.63795C12.4628 4.6179 13.0698 5.59824 13.6753 6.57896C13.7722 6.73682 13.8599 6.81861 14.0616 6.70822C14.4713 6.48401 14.8913 6.27868 15.3148 6.07906C18.0457 4.7997 21.0084 4.08713 24.0234 3.98455C25.3576 3.94456 26.6929 4.00517 28.018 4.16586C30.7755 4.48445 33.3817 5.33838 35.8361 6.63444C36.1065 6.77743 36.2229 6.74597 36.3845 6.48058C37.5248 4.60913 38.6829 2.74741 39.8411 0.886824C39.9347 0.730554 40.0622 0.597198 40.2142 0.496541C40.3662 0.395885 40.5389 0.330484 40.7195 0.305141C40.9002 0.279798 41.0842 0.295154 41.2582 0.350085C41.4321 0.405016 41.5915 0.498126 41.7246 0.622579C41.8679 0.755273 41.9602 0.942305 42.0759 1.10417C42.0215 1.35869 42.0312 1.65211 41.904 1.86201C40.6966 3.84442 39.4663 5.81253 38.2428 7.78522C38.3219 7.9448 38.362 8.15013 38.487 8.25537C39.2073 8.86165 39.9837 9.40558 40.6731 10.0433C42.0742 11.3382 43.3246 12.7635 44.375 14.3696C45.5608 16.167 46.496 18.1172 47.1548 20.1664C47.2092 20.3363 47.2889 20.4981 47.3605 20.6612ZM18.2551 17.0887C18.2551 15.3957 16.9113 14.0362 15.2329 14.031C14.4207 14.0319 13.6419 14.3535 13.0664 14.9255C12.491 15.4975 12.1656 16.2735 12.1614 17.0841C12.1614 18.76 13.5132 20.1029 15.2128 20.1155C15.6126 20.1195 16.0092 20.0439 16.3795 19.8934C16.7497 19.7428 17.0862 19.5201 17.3694 19.2384C17.6526 18.9567 17.8767 18.6215 18.0288 18.2524C18.1809 17.8833 18.2578 17.4878 18.2551 17.0887ZM34.7765 20.1035C36.4779 20.1035 37.8245 18.7743 37.832 17.0876C37.8394 15.4289 36.4567 14.0379 34.7948 14.0322C33.9873 14.0294 33.2116 14.3464 32.6377 14.9135C32.0639 15.4807 31.7388 16.2518 31.7336 17.0578C31.7228 18.7622 33.062 20.1041 34.7765 20.1035Z" fill="#2E2C2C"/>
    <path d="M42.0791 1.10418C41.9644 0.942319 41.871 0.755288 41.7278 0.622593C41.5946 0.49814 41.4352 0.40503 41.2613 0.3501C41.0874 0.295169 40.9033 0.279812 40.7227 0.305155C40.542 0.330498 40.3694 0.395899 40.2173 0.496556C40.0653 0.597212 39.9378 0.730569 39.8442 0.886838C38.6861 2.74742 37.5279 4.60914 36.3876 6.48059C36.226 6.74598 36.1097 6.77744 35.8392 6.63445C33.3848 5.33839 30.7786 4.48446 28.0212 4.16588C26.6966 4.00527 25.3618 3.94466 24.0282 3.98457C21.0126 4.08709 18.0493 4.79986 15.3179 6.07965C14.8944 6.27697 14.4744 6.48002 14.0647 6.7088C13.863 6.81919 13.7782 6.7374 13.6784 6.57954C13.0752 5.59577 12.4688 4.61467 11.859 3.63624C11.2911 2.72111 10.7267 1.80598 10.1502 0.894273C9.8637 0.441282 9.4385 0.236521 8.90328 0.322315C8.35717 0.412684 8.03454 0.761579 7.92223 1.33926C7.80762 0.746136 8.24199 0.249105 8.6563 0.0889567C8.91559 -0.0169733 9.20392 -0.028678 9.47098 0.0558868C9.73803 0.140452 9.96687 0.315917 10.1176 0.551671C10.639 1.36042 11.1404 2.1829 11.6482 3.0008C12.3123 4.07436 12.9811 5.13706 13.632 6.21349C13.7759 6.45199 13.8888 6.49546 14.1478 6.35877C16.5736 5.05548 19.2195 4.2099 21.9526 3.86445C26.7851 3.25646 31.3798 4.04691 35.7177 6.27583C36.2334 6.54122 36.1228 6.59098 36.4432 6.07622C37.5721 4.26425 38.6935 2.44714 39.8241 0.635176C40.3364 -0.186156 41.459 -0.209033 41.926 0.593424C42.0126 0.742706 42.0292 0.932595 42.0791 1.10418Z" fill="#2E2C2C"/>
    <path d="M11.7524 7.78227C11.7948 8.01105 11.6951 8.16033 11.5123 8.28673C10.219 9.17727 9.06026 10.2262 7.99039 11.3679C6.6938 12.7543 5.57503 14.2963 4.65987 15.9584C3.64233 17.7945 2.87914 19.76 2.39119 21.801C2.36588 21.8822 2.33525 21.9617 2.2995 22.0389C2.48345 21.3114 2.62786 20.5707 2.85765 19.8575C4.43351 14.9523 7.33942 11.0064 11.5066 7.97788C11.5914 7.91668 11.6705 7.8509 11.7524 7.78227Z" fill="#2E2C2C"/>
    <path d="M47.3605 20.6612C47.2912 20.4959 47.2086 20.3335 47.1542 20.1636C46.4952 18.1152 45.5607 16.1663 44.375 14.3696C43.3246 12.7641 42.0707 11.3377 40.6696 10.0434C39.982 9.40565 39.2038 8.86171 38.4834 8.25544C38.3585 8.1502 38.3184 7.94487 38.2393 7.78529C39.0897 8.47679 39.9797 9.12539 40.7836 9.86779C43.9021 12.7482 46.0614 16.236 47.2768 20.302C47.3123 20.4198 47.333 20.5428 47.3605 20.6612Z" fill="#2E2C2C"/>
    <path d="M1.78564 26.3158H48.2142V46.875C48.2142 48.6009 46.8154 50 45.09 50H4.9099C3.18442 50 1.78564 48.6009 1.78564 46.875V26.3158Z" fill="#2E2C2C"/>
</svg>