<svg xmlns="http://www.w3.org/2000/svg" width="50" height="50" viewBox="0 0 50 50" fill="none">
    <path d="M44.0151 17.0467C43.7256 17.2717 38.6157 20.157 38.6157 26.5727C38.6157 33.9934 45.1179 36.6187 45.3125 36.6837C45.2826 36.8437 44.2795 40.279 41.8843 43.7794C39.7485 46.8597 37.5179 49.935 34.1245 49.935C30.7312 49.935 29.8579 47.9598 25.9406 47.9598C22.1232 47.9598 20.7658 50 17.662 50C14.5581 50 12.3923 47.1497 9.90223 43.6494C7.01791 39.539 4.6875 33.1533 4.6875 27.0927C4.6875 17.3717 10.9951 12.2162 17.2029 12.2162C20.5014 12.2162 23.2509 14.3864 25.3219 14.3864C27.293 14.3864 30.3669 12.0862 34.1195 12.0862C35.5417 12.0862 40.6517 12.2162 44.0151 17.0467ZM32.3381 7.9708C33.89 6.12561 34.9878 3.56536 34.9878 1.0051C34.9878 0.650065 34.9579 0.290029 34.893 0C32.368 0.0950095 29.3639 1.68517 27.5525 3.79038C26.1303 5.41054 24.8029 7.9708 24.8029 10.5661C24.8029 10.9561 24.8678 11.3461 24.8977 11.4711C25.0574 11.5012 25.3169 11.5362 25.5764 11.5362C27.8419 11.5362 30.6913 10.016 32.3381 7.9708Z" fill="#2E2C2C"/>
</svg>