<svg xmlns="http://www.w3.org/2000/svg" width="50" height="50" viewBox="0 0 50 50" fill="none">
    <path fill-rule="evenodd" clip-rule="evenodd" d="M45.7019 41.61C44.9561 41.0052 44.1941 40.4148 43.4964 39.7585C42.7194 39.0281 42.2312 38.1447 42.3376 37.0261C42.3986 36.3825 42.2478 35.8289 41.4596 35.6136C41.6449 35.1415 41.8186 34.8248 41.8888 34.4872C41.9669 34.1108 41.9628 33.7151 41.9736 33.3276C42.0833 29.2523 40.5883 25.6799 38.374 22.3477C37.3544 20.8141 36.2894 19.308 35.2025 17.8199C33.5022 15.4925 32.8926 12.878 32.8619 10.0535C32.8443 8.74968 32.6939 7.45088 32.4127 6.17667C31.8672 3.70531 30.5226 1.77282 28.084 0.736409C26.2154 -0.0581891 24.2812 -0.215718 22.308 0.292875C19.4406 1.03142 17.7066 3.13003 17.7391 6.05719C17.7698 8.87429 17.9123 11.6951 18.1222 14.5056C18.2418 16.0985 17.9925 17.4729 16.9193 18.7364C15.8871 19.9512 14.9639 21.2618 14.0697 22.5813C13.559 23.3358 13.107 24.1578 12.7912 25.0081C11.9311 27.3252 11.1404 29.6615 9.76795 31.7593C9.25937 32.5367 9.20161 33.4066 9.56269 34.2957C9.65618 34.5261 9.71352 34.8804 9.59967 35.0658C8.62156 36.6644 7.51756 38.0711 5.41716 38.378C3.7651 38.6198 3.09928 39.5751 4.20598 41.4823C5.31267 43.3895 3.75928 43.3362 3.61759 44.693C3.46677 46.1476 3.62092 46.5428 5.04777 46.8915C8.34026 47.6967 11.6598 48.3837 14.8089 49.6959C16.1497 50.2544 17.4952 50.0604 18.5751 48.9745C19.7023 47.8407 21.1267 47.3972 22.6653 47.3955C25.2768 47.3935 27.8891 47.5175 30.5018 47.5465C31.209 47.5547 31.615 47.8137 31.8996 48.4463C32.2486 49.2208 32.8386 49.79 33.7465 49.889C35.4887 50.078 37.076 49.8235 38.396 48.5146C40.024 46.8992 41.9013 45.6235 44.0532 44.7392C44.669 44.486 45.249 44.0879 45.758 43.6558C46.685 42.8694 46.636 42.3685 45.7019 41.61ZM24.3461 8.68239C24.661 7.61816 25.4002 6.92749 26.5246 6.71799C27.4703 6.54205 28.2709 6.9995 28.8676 8.04614C29.51 9.17462 29.7211 10.3538 29.1726 11.5887C28.7226 12.601 28.5115 12.6963 27.4595 12.353C27.2625 12.2888 27.0701 12.2127 26.7211 12.0862C27.0153 11.8432 27.2006 11.6628 27.4125 11.5208C27.8837 11.2049 28.0158 10.7605 27.9718 10.2327C27.914 9.5396 27.3606 8.92585 26.793 8.93362C26.284 8.94058 25.8531 9.41112 25.7958 10.1263C25.76 10.5719 25.8352 11.0261 25.8676 11.5948C24.4358 11.1763 23.9102 10.1525 24.3461 8.68239ZM19.0483 7.76136C19.5777 6.97249 20.3767 6.81456 21.1678 7.34238C22.0109 7.90539 22.6416 9.49295 22.3159 10.4422C22.1975 10.7875 21.8476 11.056 21.6029 11.3592C21.6029 11.3592 21.4105 11.5206 21.3519 11.2061C21.2933 10.8916 21.2372 10.1484 21.0374 9.67871C20.911 9.38084 20.6137 8.95776 20.24 8.95776C19.8663 8.95776 19.5365 9.54819 19.51 9.86938C19.4734 10.3129 19.7082 10.8023 19.9126 11.2323C20.0418 11.5028 20.3285 11.7008 20.6243 12.0163L19.8257 12.6341C18.5717 11.5294 18.199 9.02528 19.0483 7.76136ZM34.698 34.0322C34.6137 35.0977 34.4903 35.1423 33.4025 35.2998C32.63 35.4111 32.4223 35.6091 32.3832 36.5126C32.3407 37.5695 32.3391 38.6277 32.3782 39.6848C32.4036 40.4091 32.1551 40.977 31.649 41.4823C28.8385 44.2875 25.4808 45.6169 21.4641 45.1345C19.7314 44.9262 18.5987 43.8878 17.6842 42.4181C18.0914 42.2695 18.3927 42.1697 18.6864 42.0523C19.9836 41.5326 20.2263 40.434 19.1904 39.4839C18.4076 38.765 17.5342 38.1406 16.6945 37.4823C15.8826 36.846 15.0599 36.2229 14.2467 35.5883C13.5536 35.0469 13.289 34.3493 13.2723 33.4655C13.2333 31.3452 13.6762 29.3616 14.5762 27.4316C15.379 25.7094 16.001 23.9058 16.7531 22.1595C17.1416 21.2585 17.545 20.3366 18.1151 19.5457C18.6631 18.7871 19.0018 18.0445 18.9411 17.1153C18.9062 16.5932 18.9345 16.067 18.9345 15.5429L19.2282 15.3988C19.7023 15.8019 20.1847 16.1963 20.6505 16.6096C22.3313 18.1014 23.9297 18.1697 25.7692 16.8837C26.5537 16.335 27.4021 15.8731 28.2319 15.3894C28.4384 15.2691 28.6856 15.2164 29.0355 15.0875C29.9292 17.1603 30.8064 19.1926 31.6843 21.2249C32.1298 22.2577 32.4871 23.3391 33.0406 24.3129C34.1504 26.2667 34.7408 28.328 34.7317 30.5617C34.7267 31.7196 34.7886 32.8816 34.698 34.0322Z" fill="#2E2C2C"/>
</svg>