<svg xmlns="http://www.w3.org/2000/svg" width="50" height="50" viewBox="0 0 50 50" fill="none">
    <g clip-path="url(#clip0_5024_4186)">
        <path d="M27.5193 16.588V16.1759L26.2386 16.2639C25.8759 16.2867 25.6036 16.3639 25.4205 16.494C25.2374 16.6253 25.1458 16.8072 25.1458 17.0398C25.1458 17.2663 25.2361 17.447 25.4181 17.5807C25.5988 17.7157 25.8422 17.7819 26.1458 17.7819C26.3398 17.7819 26.5217 17.7518 26.6892 17.6928C26.8566 17.6337 27.0036 17.5506 27.1265 17.4446C27.2494 17.3398 27.3458 17.2145 27.4145 17.0687C27.4843 16.9229 27.5193 16.7627 27.5193 16.588ZM25 0C11.0494 0 0 11.0494 0 25C0 38.9518 11.0494 50 25 50C38.9506 50 50 38.9518 50 25C50 11.0494 38.9518 0 25 0ZM29.853 14.8181C29.9711 14.4867 30.1374 14.2024 30.353 13.9663C30.5687 13.7301 30.8277 13.5482 31.1313 13.4205C31.4349 13.2928 31.7735 13.2289 32.1458 13.2289C32.4819 13.2289 32.7855 13.2795 33.0554 13.3795C33.3265 13.4795 33.5578 13.6145 33.7518 13.7843C33.9458 13.9542 34.1 14.1518 34.2133 14.3783C34.3265 14.6048 34.394 14.8446 34.4169 15.0964H33.4133C33.388 14.9578 33.3422 14.8277 33.2771 14.7084C33.2121 14.5892 33.1265 14.4855 33.0205 14.3976C32.9133 14.3096 32.788 14.241 32.6446 14.1916C32.5 14.141 32.3386 14.1169 32.1566 14.1169C31.9434 14.1169 31.7494 14.1602 31.5771 14.2458C31.4036 14.3313 31.2554 14.453 31.1325 14.6096C31.0096 14.7663 30.9145 14.9578 30.847 15.1819C30.7783 15.4072 30.7446 15.6566 30.7446 15.9313C30.7446 16.2157 30.7783 16.4711 30.847 16.6952C30.9145 16.9205 31.0108 17.1096 31.1361 17.2651C31.2602 17.4205 31.4108 17.5398 31.5855 17.6217C31.7602 17.7036 31.953 17.7458 32.1627 17.7458C32.506 17.7458 32.7855 17.6651 33.0024 17.5036C33.2193 17.3422 33.359 17.106 33.4241 16.7952H34.4289C34.4 17.0699 34.3241 17.3205 34.2012 17.547C34.0783 17.7735 33.9193 17.9663 33.7241 18.1265C33.5277 18.2867 33.2976 18.4108 33.0325 18.4976C32.7675 18.5843 32.4759 18.6289 32.159 18.6289C31.7831 18.6289 31.4446 18.5663 31.1398 18.4422C30.8361 18.3181 30.5747 18.1386 30.3578 17.906C30.141 17.6735 29.9735 17.3904 29.8554 17.0566C29.7374 16.7229 29.6783 16.3482 29.6783 15.9301C29.6759 15.5217 29.7349 15.1506 29.853 14.8181ZM15.5723 13.2976H16.5771V14.1904H16.5964C16.6578 14.0422 16.7386 13.9084 16.8374 13.7928C16.9361 13.6759 17.0494 13.5771 17.1795 13.494C17.3084 13.4108 17.4518 13.3482 17.606 13.3048C17.7614 13.2614 17.9253 13.2398 18.0964 13.2398C18.4651 13.2398 18.7771 13.3277 19.0301 13.5036C19.2843 13.6795 19.4651 13.9325 19.5711 14.2627H19.5964C19.6639 14.1036 19.753 13.9614 19.8627 13.8361C19.9723 13.7108 20.0988 13.6024 20.241 13.5133C20.3831 13.4241 20.5398 13.3566 20.7096 13.3096C20.8795 13.2627 21.0578 13.2398 21.2458 13.2398C21.5048 13.2398 21.7398 13.2807 21.9518 13.3639C22.1639 13.447 22.3446 13.5627 22.4952 13.7133C22.6458 13.8639 22.7614 14.047 22.8422 14.2614C22.9229 14.4759 22.9639 14.7145 22.9639 14.9771V18.5687H21.9157V15.2289C21.9157 14.8831 21.8265 14.6145 21.6482 14.4253C21.4711 14.2361 21.2169 14.141 20.8867 14.141C20.7253 14.141 20.5771 14.1699 20.4422 14.2265C20.3084 14.2831 20.1916 14.3627 20.0952 14.4651C19.9976 14.5663 19.9217 14.6892 19.8675 14.8313C19.812 14.9735 19.7843 15.1289 19.7843 15.2976V18.5687H18.7506V15.1422C18.7506 14.9904 18.7265 14.853 18.6795 14.7301C18.6325 14.6072 18.5663 14.5024 18.4783 14.4145C18.3916 14.3265 18.2843 14.2602 18.1602 14.2133C18.0349 14.1663 17.8952 14.1422 17.7398 14.1422C17.5783 14.1422 17.4289 14.1723 17.2904 14.2325C17.153 14.2928 17.0349 14.3759 16.9361 14.4819C16.8374 14.5892 16.7602 14.7145 16.706 14.8602C16.653 15.0048 16.5663 15.1639 16.5663 15.3349V18.5675H15.5723V13.2976ZM17.853 38.5253C13.2446 38.5253 10.3542 35.3229 10.3542 30.212C10.3542 25.1012 13.2446 21.888 17.853 21.888C22.4614 21.888 25.341 25.1012 25.341 30.212C25.341 35.3217 22.4614 38.5253 17.853 38.5253ZM26.3855 18.5554C26.2157 18.5988 26.0422 18.6205 25.8639 18.6205C25.6012 18.6205 25.3614 18.5831 25.1434 18.5084C24.9241 18.4337 24.7374 18.3289 24.5807 18.1928C24.4241 18.0566 24.3012 17.8928 24.2145 17.7C24.1265 17.5072 24.0831 17.2928 24.0831 17.0566C24.0831 16.594 24.2554 16.2325 24.6 15.9723C24.9446 15.712 25.4434 15.5602 26.0976 15.5181L27.5193 15.4361V15.0289C27.5193 14.7253 27.4229 14.4928 27.2301 14.3349C27.0373 14.1771 26.7651 14.0976 26.4121 14.0976C26.2699 14.0976 26.1361 14.1157 26.0133 14.1506C25.8904 14.1867 25.7819 14.2373 25.688 14.3036C25.594 14.3699 25.5157 14.4494 25.4554 14.5422C25.394 14.6337 25.3518 14.7374 25.3289 14.8506H24.3434C24.3494 14.6181 24.4072 14.4024 24.5157 14.2048C24.6241 14.0072 24.7711 13.8361 24.9578 13.6904C25.1446 13.5446 25.3627 13.4313 25.6157 13.3506C25.8687 13.2699 26.1434 13.2289 26.441 13.2289C26.7614 13.2289 27.0518 13.2687 27.312 13.3506C27.5723 13.4325 27.7952 13.547 27.9795 13.6976C28.1639 13.8482 28.306 14.0289 28.406 14.241C28.506 14.453 28.5566 14.6904 28.5566 14.9518V18.5675H27.553V17.6892H27.5277C27.453 17.8313 27.359 17.9602 27.2446 18.0747C27.1289 18.1892 27 18.288 26.8566 18.3687C26.712 18.4494 26.5554 18.512 26.3855 18.5554ZM33.0157 38.5253C29.5012 38.5253 27.112 36.6843 26.9458 33.794H29.2337C29.412 35.4458 31.0084 36.5398 33.1952 36.5398C35.2928 36.5398 36.8 35.4458 36.8 33.9506C36.8 32.6566 35.8843 31.8747 33.7651 31.3398L31.7 30.8265C28.7313 30.0904 27.3819 28.7398 27.3819 26.5193C27.3819 23.7855 29.7699 21.888 33.1735 21.888C36.4988 21.888 38.8193 23.7964 38.9084 26.541H36.6434C36.4867 24.8892 35.1374 23.8735 33.1277 23.8735C31.1301 23.8735 29.747 24.9 29.747 26.3843C29.747 27.5554 30.6169 28.2482 32.7374 28.7831L34.4783 29.2181C37.7928 30.0217 39.1542 31.3277 39.1542 33.6711C39.153 36.6614 36.788 38.5253 33.0157 38.5253ZM17.853 23.9398C14.6952 23.9398 12.7205 26.3614 12.7205 30.2108C12.7205 34.0494 14.6952 36.4711 17.853 36.4711C21 36.4711 22.9855 34.0494 22.9855 30.2108C22.9867 26.3614 21 23.9398 17.853 23.9398Z" fill="#2E2C2C"/>
    </g>
    <defs>
        <clipPath id="clip0_5024_4186">
            <rect width="50" height="50" fill="white"/>
        </clipPath>
    </defs>
</svg>